<svg xmlns="http://www.w3.org/2000/svg" width="256" height="256"><path fill="#1976D2" fill-opacity=".016" fill-rule="evenodd" d="M0 128.004v128.004l128.25-.254 128.25-.254.254-127.75L257.008 0H0zm.485.496c0 70.4.119 99.053.265 63.672s.146-92.98 0-128S.485 58.1.485 128.5"/><path fill="#1976D2" fill-opacity=".207" fill-rule="evenodd" d="M104.597 1.607C52.854 10.951 10.515 53.837 1.611 105.926c-2.043 11.953-2.067 31.929-.052 43.448C10.713 201.711 50.276 242.391 103 253.68c11.741 2.514 38.16 2.541 49.692.051 47.819-10.324 84.636-43.872 98.18-89.461 1.658-5.583 3.324-12.877 3.701-16.21s1.077-6.06 1.556-6.06.871-6.777.871-15.059-.356-14.839-.79-14.571-1.36-3.127-2.055-7.547-2.642-12.151-4.326-17.18c-14.642-43.737-51.572-76.42-96.752-85.627-11.95-2.435-36.131-2.639-48.48-.409M112 7.021C46.954 16.026.395 74.442 6.908 138.878c1.776 17.573 4.424 26.942 12.064 42.688 15.574 32.098 43.497 54.631 80.028 64.58 7.581 2.064 10.717 2.316 29 2.331 19.305.016 21.07-.142 30.285-2.716 28.671-8.006 50.671-22.855 67.509-45.564 17.751-23.941 26.188-54.104 23.318-83.366-5.328-54.31-43.51-97.128-96.612-108.34-9.338-1.972-31.158-2.764-40.5-1.47M93.208 57.286C91.443 59.106 90 60.911 90 61.298s16.875.702 37.5.702H165v67.5c0 37.125.366 67.5.813 67.5s2.025-1.265 3.507-2.812l2.694-2.812-.257-68.438L171.5 54.5l-37.542-.262-37.543-.262zM84 134v67h76V67H84zm10-12.5V166h58V77H94zM.402 128c0 8.525.154 12.012.341 7.75s.188-11.237 0-15.5c-.187-4.263-.341-.775-.341 7.75M118.4 180.765c-4.465 2.982-3.026 9.521 2.208 10.036 3.602.354 5.642-1.626 5.642-5.476 0-3.984-4.66-6.69-7.85-4.56"/><path fill="#1976D2" fill-opacity=".432" fill-rule="evenodd" d="M106.5 1.556C65.341 9.322 31.738 34.301 13.755 70.5c-20.495 41.255-17.666 89.303 7.52 127.719C28.656 209.477 45.37 226.461 56 233.504c44.541 29.514 99.9 29.507 143.938-.017 14.751-9.889 30.835-27.316 39.48-42.774 7.655-13.688 13.989-32.811 15.234-45.995.353-3.729 1.025-7.018 1.495-7.309.469-.29.853-5.252.853-11.027 0-6.745-.358-10.279-1-9.882-.594.367-1-.801-1-2.876 0-4.861-2.549-16.621-5.662-26.124-13.723-41.888-49.743-74.625-93.083-84.6C144.298.148 117.762-.569 106.5 1.556m4 5.093c-1.65.258-7.308 1.542-12.574 2.855C70.99 16.219 47.255 32.232 29.2 55.87c-5.818 7.617-15.581 27.697-18.594 38.242-16.132 56.456 10.386 116.469 63.203 143.038 7.684 3.866 22.569 8.88 32.691 11.012 7.824 1.649 35.229 1.641 43-.012 18.341-3.901 35.927-11.322 49.35-20.825 3.658-2.59 10.709-8.784 15.67-13.767 23-23.097 35.48-53.208 35.48-85.603 0-55.895-37.356-104.099-91.91-118.599-8.184-2.176-12.155-2.595-27.09-2.862-9.625-.172-18.85-.102-20.5.155M93.5 58l-2.874 3H165v67.5c0 37.125.366 67.5.813 67.5s2.022-1.262 3.5-2.805l2.687-2.804V55H96.374zm-9.257 75.75.257 66.75h75l.257-66.75.257-66.75H83.986zM94 121.5V167h58V76H94zm-93.626 6c.002 6.05.167 8.396.366 5.213.199-3.182.197-8.132-.004-11-.201-2.867-.364-.263-.362 5.787m116.183 54.723c-2.236 3.191-1.93 5.338 1.1 7.722 4.087 3.215 9.343.694 9.343-4.481 0-5.051-7.538-7.39-10.443-3.241"/><path fill="#1976D2" fill-opacity=".505" fill-rule="evenodd" d="M113 .958C48.297 9.302.776 62.856.714 127.5c-.008 7.627.655 16.744 1.603 22.058 9.527 53.391 50.835 94.53 104.309 103.883 11.251 1.968 31.581 2 42.664.068 46.567-8.121 85.274-41.334 99.732-85.576C252.33 157.81 255 144.185 255 137.428c0-2.37.45-4.588 1-4.928s1-2.868 1-5.618c0-3.079-.384-4.763-1-4.382-.615.38-1-1.286-1-4.331 0-11.61-5.994-33.8-12.741-47.169-14.195-28.126-37.876-49.935-66.96-61.666C157.374 2.103 131.3-1.402 113 .958m-2.401 5.619C97.261 8.651 87.628 11.572 76.257 16.99 45.435 31.676 22.574 57.28 11.938 89.025c-14.392 42.958-3.934 89.953 27.29 122.634 10.95 11.461 21.865 19.489 35.272 25.944C92.654 246.342 108.439 250 128 250c19.669 0 35.559-3.696 53.552-12.454 55.318-26.93 81.996-90.359 62.491-148.577-8.178-24.411-25.5-47.523-46.304-61.784-25.769-17.664-57.622-25.197-87.14-20.608M93.5 58l-2.874 3H166v135.349l2.5-2.349 2.5-2.349V55H96.374zM85 133.5V200h74V67H85zm8-12V167h59V76H93zM.3 128c0 3.025.187 4.262.416 2.75s.229-3.987 0-5.5S.3 124.975.3 128m118.2 52.203c-2.699 1.52-3.467 2.818-3.485 5.892-.03 5.185 6.864 7.906 10.33 4.076 4.547-5.024-1.078-13.215-6.845-9.968"/></svg>